<svg width="404" height="91" viewBox="0 0 404 91" fill="none" xmlns="http://www.w3.org/2000/svg">
<path d="M71.7118 64.8758C73.6052 64.0156 68.8717 59.0048 34.7909 45.8436L49.7012 41.0048L41.891 38.1016L25.5606 41.0048L7.81019 26.8113L34.7909 29.7145L16.3304 21.0049L0 8.74679V0.0371094L16.3304 5.84356L34.7909 13.9081L61.0615 17.4565V11.9726V5.84356L80.942 13.9081L103.663 17.4565L98.6924 11.9726L123.543 13.9081L134.193 17.4565H146.974L157.624 11.9726L164.014 17.4565H176.084L193.835 8.74679L203.775 9.39195L225.076 17.4565H235.726L239.986 9.39195L256.316 17.4565L265.547 21.0049L271.755 13.9081L287.557 11.9726L306.728 9.39195L297.497 17.4565L317.378 13.9081L343.648 5.84356L338.678 17.4565L367.789 11.9726L389.09 5.84356L404 0.0371094L389.09 17.4565L361.399 29.7145L394.77 26.8113L367.789 41.0048L361.399 38.1016L332.998 34.5532L372.759 45.8436L328.738 61.65L332.998 67.4565L324.478 72.2952L297.497 70.0371L279.747 75.8436L269.807 78.7468L260.576 84.8758L239.986 78.7468L229.336 84.8758L197.385 90.0371L176.084 84.8758L164.014 78.7468L140.583 84.8758L134.193 78.7468H123.543L114.313 72.2952L66.0316 75.8436V72.2952L71.7118 64.8758Z" fill="#FCCD25" fill-opacity="0.29"/>
</svg>
